<?xml version="1.0" encoding="UTF-8" standalone="no"?>
<!DOCTYPE svg PUBLIC "-//W3C//DTD SVG 1.1//EN" "http://www.w3.org/Graphics/SVG/1.1/DTD/svg11.dtd">
<svg width="1920.00" height="920.00" viewBox="0.00 0.00 1920.00 920.00" xmlns="http://www.w3.org/2000/svg" xmlns:xlink="http://www.w3.org/1999/xlink">
<g stroke-linecap="round" id="Layer_8">
<path d="M959.86,124.31 C963.85,124.31 983.52,125.33 991.46,126.02 C999.43,126.87 1015.22,129.07 1023.02,130.42 C1033.94,132.54 1046.02,135.67 1053.63,137.84 C1061.23,140.19 1076.37,145.40 1083.82,148.23 C1091.17,151.20 1105.60,157.53 1112.59,161.13 C1119.54,164.86 1133.31,172.82 1140.12,177.05 C1146.82,181.41 1159.84,190.48 1166.16,195.19 C1169.82,197.97 1184.20,210.45 1190.02,215.86 C1195.77,221.43 1206.89,232.91 1212.23,238.77 C1219.95,247.64 1224.93,253.89 1231.86,263.39 C1236.39,269.90 1245.11,283.30 1249.26,290.14 C1253.24,297.02 1262.20,313.81 1264.11,318.01 C1267.29,325.21 1273.23,339.92 1275.99,347.43 C1278.60,355.01 1283.30,370.20 1285.38,377.81 C1287.34,385.43 1290.30,400.90 1291.56,408.73 C1292.66,416.63 1294.37,432.54 1294.97,440.47 C1295.40,448.37 1295.76,460.85 1295.40,471.97 C1294.97,479.87 1293.60,495.76 1292.66,503.72 C1291.56,511.61 1288.19,531.02 1287.30,534.91 C1286.41,538.80 1281.03,557.75 1278.60,565.34 C1275.99,572.92 1270.33,587.83 1267.29,595.13 C1262.79,605.30 1257.05,616.39 1253.24,623.32 C1249.26,630.21 1240.81,643.81 1236.39,650.44 C1231.86,656.95 1222.48,669.61 1217.41,675.62 C1212.23,681.57 1201.40,693.22 1195.77,698.92 C1190.02,704.48 1178.29,715.16 1172.29,720.26 C1168.76,723.22 1153.40,734.46 1146.82,738.93 C1140.12,743.29 1126.45,751.59 1119.54,755.48 C1109.18,761.04 1101.98,764.51 1091.17,769.15 C1083.82,772.12 1068.81,777.63 1061.23,780.16 C1053.63,782.50 1035.27,787.51 1030.75,788.43 C1023.02,789.93 1007.36,792.45 999.43,793.47 C991.46,794.33 975.60,795.52 967.71,795.87 C959.86,796.08 944.11,795.52 936.20,795.01 C928.25,794.33 912.35,792.45 904.49,791.27 C896.69,789.93 884.45,787.51 873.69,784.68 C866.08,782.50 850.90,777.63 843.35,774.95 C835.89,772.12 817.73,764.51 814.13,762.78 C810.53,761.04 793.26,751.59 786.40,747.52 C779.59,743.29 766.31,734.46 759.87,729.87 C750.95,723.22 741.42,715.16 735.51,709.90 C729.69,704.48 718.31,693.22 712.82,687.44 C707.48,681.57 697.23,669.61 692.50,663.33 C687.85,656.95 678.90,643.81 674.60,637.04 C670.45,630.21 662.66,616.39 659.01,609.41 C656.92,605.30 649.38,587.83 646.48,580.42 C643.72,572.92 638.68,557.75 636.42,550.14 C633.30,538.80 631.53,531.02 629.41,519.45 C628.15,511.61 626.11,495.76 625.34,487.80 C624.74,479.87 623.95,460.85 624.05,456.25 C624.31,448.37 625.34,432.54 626.11,424.59 C627.05,416.63 629.41,400.90 630.83,393.13 C632.37,385.43 636.42,370.20 638.68,362.60 C641.11,355.01 646.48,339.92 649.38,332.52 C652.42,325.21 657.51,313.81 662.66,303.96 C666.47,297.02 674.60,283.30 678.90,276.54 C683.32,269.90 694.78,253.89 697.27,250.76 C699.76,247.64 712.82,232.91 718.31,227.12 C723.95,221.43 735.51,210.45 741.42,205.19 C749.89,197.97 759.87,190.48 766.31,185.89 C772.89,181.41 786.40,172.82 793.26,168.76 C800.17,164.86 814.11,157.53 821.28,154.31 C828.54,151.20 843.35,145.40 850.90,142.71 C858.48,140.19 873.69,135.67 881.31,133.66 C885.77,132.54 904.49,129.07 912.35,127.89 C928.26,125.85 955.86,124.31 959.86,124.31 Z" fill="none" stroke="rgb(0, 0, 0)" stroke-width="2.91" stroke-opacity="1.00" stroke-linejoin="round"/>
</g>
<g stroke-linecap="round" id="Layer_10">
<path d="M959.71,223.26 C965.10,223.27 982.78,224.53 990.55,225.50 C998.29,226.58 1015.70,229.93 1020.91,231.32 C1026.11,232.72 1042.87,238.52 1050.11,241.46 C1057.32,244.51 1073.27,252.25 1077.94,254.94 C1082.60,257.64 1097.28,267.58 1103.52,272.30 C1109.69,277.10 1123.09,288.71 1126.91,292.52 C1130.71,296.33 1142.32,309.73 1147.13,315.90 C1151.84,322.14 1161.78,336.82 1164.48,341.49 C1167.17,346.16 1174.92,362.10 1177.96,369.31 C1180.90,376.56 1186.70,393.31 1188.10,398.51 C1189.49,403.72 1192.85,421.13 1193.92,428.88 C1194.89,436.64 1196.15,454.32 1196.16,459.71 C1196.15,465.10 1194.89,482.78 1193.92,490.55 C1192.85,498.29 1189.49,515.70 1188.10,520.91 C1186.70,526.11 1180.90,542.87 1177.96,550.11 C1174.92,557.32 1167.17,573.27 1164.48,577.94 C1161.78,582.60 1151.84,597.28 1147.13,603.52 C1142.32,609.69 1130.71,623.09 1126.91,626.91 C1123.09,630.71 1109.69,642.32 1103.52,647.13 C1097.28,651.84 1082.60,661.78 1077.94,664.48 C1073.27,667.17 1057.32,674.92 1050.11,677.96 C1042.87,680.90 1026.11,686.70 1020.91,688.10 C1015.70,689.49 998.29,692.85 990.55,693.92 C982.78,694.89 965.10,696.15 959.71,696.16 C954.32,696.15 936.64,694.89 928.88,693.92 C921.13,692.85 903.72,689.49 898.51,688.10 C893.31,686.70 876.56,680.90 869.31,677.96 C862.10,674.92 846.16,667.17 841.49,664.48 C836.82,661.78 822.14,651.84 815.90,647.13 C809.73,642.32 796.33,630.71 792.52,626.91 C788.71,623.09 777.10,609.69 772.30,603.52 C767.58,597.28 757.64,582.60 754.94,577.94 C752.25,573.27 744.51,557.32 741.46,550.11 C738.52,542.87 732.72,526.11 731.32,520.91 C729.93,515.70 726.58,498.29 725.50,490.55 C724.53,482.78 723.27,465.10 723.26,459.71 C723.27,454.32 724.53,436.64 725.50,428.88 C726.58,421.13 729.93,403.72 731.32,398.51 C732.72,393.31 738.52,376.56 741.46,369.31 C744.51,362.10 752.25,346.16 754.94,341.49 C757.64,336.82 767.58,322.14 772.30,315.90 C777.10,309.73 788.71,296.33 792.52,292.52 C796.33,288.71 809.73,277.10 815.90,272.30 C822.14,267.58 836.82,257.64 841.49,254.94 C846.16,252.25 862.10,244.51 869.31,241.46 C876.56,238.52 893.31,232.72 898.51,231.32 C903.72,229.93 921.13,226.58 928.88,225.50 C936.64,224.53 954.32,223.27 959.71,223.26 Z" fill="none" stroke="rgb(0, 0, 0)" stroke-width="1.73" stroke-opacity="1.00" stroke-linejoin="round"/>
</g>
<g stroke-linecap="round" id="Layer_9">
<path d="M960.00,234.88 C966.51,234.88 983.46,236.24 991.35,237.28 C1000.22,238.58 1015.80,241.76 1022.05,243.64 C1029.51,245.93 1044.32,251.40 1051.62,254.56 C1059.76,258.23 1072.68,265.01 1079.29,269.15 C1085.01,272.81 1098.65,282.77 1104.78,287.78 C1110.79,292.86 1121.26,302.65 1127.28,309.44 C1131.80,314.55 1142.22,327.89 1146.71,334.36 C1151.86,341.90 1158.37,353.17 1162.32,361.40 C1165.67,368.53 1172.02,384.22 1174.19,390.68 C1177.06,399.30 1180.30,413.25 1181.69,421.01 C1182.97,428.82 1184.78,445.61 1185.08,452.40 C1185.37,460.18 1184.78,474.76 1183.89,483.65 C1182.97,491.55 1180.30,507.11 1178.56,514.72 C1177.06,521.07 1172.02,536.15 1168.72,544.49 C1165.67,551.84 1158.37,567.20 1155.12,572.84 C1151.86,578.47 1142.22,592.48 1137.37,598.79 C1131.80,605.82 1121.26,617.72 1116.51,622.20 C1110.79,627.51 1098.65,637.60 1092.27,642.34 C1085.01,647.56 1072.68,655.36 1065.80,659.01 C1059.76,662.14 1044.32,668.97 1036.92,671.77 C1029.51,674.44 1015.80,678.60 1006.91,680.43 C1000.22,681.79 983.46,684.13 975.61,684.80 C966.51,685.48 953.49,685.48 944.39,684.80 C936.54,684.13 919.78,681.79 913.09,680.43 C904.20,678.60 890.49,674.44 883.08,671.77 C875.68,668.97 860.24,662.14 854.20,659.01 C847.32,655.36 834.99,647.56 827.73,642.34 C821.35,637.60 809.21,627.51 803.49,622.20 C798.74,617.72 788.20,605.82 782.63,598.79 C777.78,592.48 768.14,578.47 764.88,572.84 C761.63,567.20 754.33,551.84 751.28,544.49 C747.98,536.15 742.94,521.07 741.44,514.72 C739.70,507.11 737.03,491.55 736.11,483.65 C735.22,474.76 734.63,460.18 734.92,452.40 C735.22,445.61 737.03,428.82 738.31,421.01 C739.70,413.25 742.94,399.30 745.81,390.68 C747.98,384.22 754.33,368.53 757.68,361.40 C761.63,353.17 768.14,341.90 773.29,334.36 C777.78,327.89 788.20,314.55 792.72,309.44 C798.74,302.65 809.21,292.86 815.22,287.78 C821.35,282.77 834.99,272.81 840.71,269.15 C847.32,265.01 860.24,258.23 868.38,254.56 C875.68,251.40 890.49,245.93 897.95,243.64 C904.20,241.76 919.78,238.58 928.65,237.28 C936.54,236.24 953.49,234.88 960.00,234.88 Z" fill="none" stroke="rgb(0, 0, 0)" stroke-width="1.11" stroke-opacity="1.00" stroke-linejoin="round"/>
</g>
<g stroke-linecap="round" id="Layer_11">
<path d="M960.22,239.13 C966.60,239.13 983.23,240.46 990.97,241.48 C999.67,242.76 1014.95,245.88 1021.07,247.72 C1028.39,249.97 1042.91,255.33 1050.07,258.43 C1058.06,262.03 1070.73,268.68 1077.21,272.74 C1082.82,276.33 1096.20,286.10 1102.20,291.01 C1108.10,295.99 1118.36,305.59 1124.28,312.25 C1128.71,317.26 1138.92,330.35 1143.33,336.69 C1148.38,344.08 1154.76,355.14 1158.64,363.21 C1161.93,370.20 1168.15,385.59 1170.28,391.93 C1173.09,400.38 1176.27,414.06 1177.64,421.66 C1178.89,429.32 1180.66,445.79 1180.96,452.45 C1181.24,460.09 1180.66,474.38 1179.79,483.10 C1178.89,490.85 1176.27,506.11 1174.56,513.57 C1173.09,519.79 1168.15,534.59 1164.92,542.76 C1161.93,549.98 1154.76,565.04 1151.58,570.57 C1148.38,576.09 1138.92,589.83 1134.17,596.02 C1128.71,602.91 1118.36,614.59 1113.71,618.97 C1108.10,624.18 1096.20,634.08 1089.93,638.73 C1082.82,643.85 1070.73,651.50 1063.98,655.08 C1058.06,658.14 1042.91,664.84 1035.65,667.59 C1028.39,670.21 1014.95,674.29 1006.22,676.08 C999.67,677.41 983.23,679.72 975.53,680.37 C966.60,681.04 953.84,681.04 944.91,680.37 C937.21,679.72 920.77,677.41 914.22,676.08 C905.49,674.29 892.05,670.21 884.78,667.59 C877.53,664.84 862.38,658.14 856.46,655.08 C849.71,651.50 837.62,643.85 830.50,638.73 C824.24,634.08 812.33,624.18 806.73,618.97 C802.07,614.59 791.73,602.91 786.27,596.02 C781.52,589.83 772.06,576.09 768.86,570.57 C765.68,565.04 758.51,549.98 755.52,542.76 C752.28,534.59 747.35,519.79 745.87,513.57 C744.17,506.11 741.55,490.85 740.65,483.10 C739.78,474.38 739.20,460.09 739.48,452.45 C739.78,445.79 741.55,429.32 742.80,421.66 C744.17,414.06 747.35,400.38 750.16,391.93 C752.28,385.59 758.51,370.20 761.80,363.21 C765.68,355.14 772.06,344.08 777.11,336.69 C781.52,330.35 791.73,317.26 796.16,312.25 C802.07,305.59 812.33,295.99 818.24,291.01 C824.24,286.10 837.62,276.33 843.23,272.74 C849.71,268.68 862.38,262.03 870.37,258.43 C877.53,255.33 892.05,249.97 899.36,247.72 C905.49,245.88 920.77,242.76 929.47,241.48 C937.21,240.46 953.84,239.13 960.22,239.13 Z" fill="none" stroke="rgb(0, 0, 0)" stroke-width="0.82" stroke-opacity="1.00" stroke-linejoin="round"/>
</g>
<g stroke-linecap="round" id="Layer_12">
<path d="M960.37,237.50 C966.81,237.51 983.57,238.85 991.38,239.87 C1000.15,241.17 1015.56,244.31 1021.74,246.17 C1029.11,248.44 1043.76,253.85 1050.98,256.97 C1059.03,260.60 1071.81,267.30 1078.34,271.40 C1084.00,275.02 1097.49,284.87 1103.55,289.82 C1109.50,294.85 1119.84,304.52 1125.80,311.24 C1130.27,316.29 1140.57,329.49 1145.02,335.88 C1150.11,343.34 1156.54,354.48 1160.46,362.62 C1163.77,369.67 1170.05,385.19 1172.19,391.58 C1175.03,400.11 1178.23,413.90 1179.61,421.57 C1180.87,429.29 1182.66,445.90 1182.96,452.61 C1183.25,460.31 1182.66,474.73 1181.78,483.52 C1180.87,491.33 1178.23,506.72 1176.51,514.24 C1175.03,520.52 1170.05,535.44 1166.78,543.68 C1163.77,550.95 1156.54,566.14 1153.33,571.72 C1150.11,577.29 1140.57,591.14 1135.78,597.38 C1130.27,604.33 1119.84,616.10 1115.15,620.53 C1109.50,625.78 1097.49,635.76 1091.17,640.45 C1084.00,645.61 1071.81,653.33 1065.00,656.93 C1059.03,660.03 1043.76,666.78 1036.44,669.55 C1029.11,672.19 1015.56,676.31 1006.76,678.12 C1000.15,679.46 983.57,681.78 975.81,682.43 C966.81,683.12 953.94,683.12 944.94,682.43 C937.18,681.78 920.60,679.46 913.99,678.12 C905.19,676.31 891.64,672.19 884.31,669.55 C876.99,666.78 861.72,660.03 855.75,656.93 C848.94,653.33 836.75,645.61 829.57,640.45 C823.26,635.76 811.25,625.78 805.60,620.53 C800.91,616.10 790.48,604.33 784.97,597.38 C780.18,591.14 770.64,577.29 767.42,571.72 C764.20,566.14 756.98,550.95 753.97,543.68 C750.70,535.44 745.72,520.52 744.24,514.24 C742.51,506.72 739.88,491.33 738.97,483.52 C738.09,474.73 737.50,460.31 737.78,452.61 C738.09,445.90 739.88,429.29 741.14,421.57 C742.51,413.90 745.72,400.11 748.56,391.58 C750.70,385.19 756.98,369.67 760.29,362.62 C764.20,354.48 770.64,343.34 775.73,335.88 C780.18,329.49 790.48,316.29 794.94,311.24 C800.91,304.52 811.25,294.85 817.20,289.82 C823.26,284.87 836.75,275.02 842.41,271.40 C848.94,267.30 861.72,260.60 869.77,256.97 C876.99,253.85 891.64,248.44 899.01,246.17 C905.19,244.31 920.60,241.17 929.37,239.87 C937.18,238.85 953.94,237.51 960.37,237.50 Z" fill="none" stroke="rgb(0, 0, 0)" stroke-width="1.99" stroke-opacity="1.00" stroke-linejoin="round"/>
</g>
<g stroke-linecap="round" id="Layer_13">
<path d="M959.67,251.50 C966.19,251.51 982.96,252.87 990.78,254.02 C998.57,255.18 1013.69,258.55 1021.08,260.83 C1028.47,263.20 1043.15,268.99 1050.22,272.34 C1058.34,276.20 1069.65,282.73 1077.06,287.83 C1083.49,292.29 1095.85,302.10 1101.59,307.31 C1107.26,312.57 1117.74,323.99 1122.64,330.15 C1127.55,336.35 1137.11,350.19 1140.38,355.83 C1143.63,361.49 1150.84,376.69 1153.75,384.04 C1156.64,391.36 1161.29,406.14 1163.00,413.69 C1164.65,421.27 1166.97,436.88 1167.61,444.67 C1168.33,453.64 1168.33,466.70 1167.61,475.67 C1166.97,483.46 1164.65,499.07 1163.00,506.65 C1161.29,514.19 1156.64,528.97 1153.75,536.29 C1150.84,543.65 1143.63,558.85 1140.38,564.50 C1137.11,570.15 1127.55,583.99 1122.64,590.19 C1117.74,596.35 1107.26,607.77 1101.59,613.02 C1095.85,618.24 1083.49,628.05 1077.06,632.50 C1069.65,637.61 1058.34,644.14 1050.22,648.00 C1043.15,651.35 1028.47,657.14 1021.08,659.50 C1013.69,661.79 998.57,665.15 990.78,666.32 C982.96,667.47 966.19,668.83 959.67,668.84 C953.14,668.83 936.37,667.47 928.55,666.32 C920.77,665.15 905.64,661.79 898.25,659.50 C890.86,657.14 876.19,651.35 869.12,648.00 C860.99,644.14 849.68,637.61 842.28,632.50 C835.84,628.05 823.49,618.24 817.74,613.02 C812.07,607.77 801.59,596.35 796.70,590.19 C791.78,583.99 782.22,570.15 778.95,564.50 C775.70,558.85 768.49,543.65 765.58,536.29 C762.69,528.97 758.04,514.19 756.33,506.65 C754.68,499.07 752.36,483.46 751.72,475.67 C751.01,466.70 751.01,453.64 751.72,444.67 C752.36,436.88 754.68,421.27 756.33,413.69 C758.04,406.14 762.69,391.36 765.58,384.04 C768.49,376.69 775.70,361.49 778.95,355.83 C782.22,350.19 791.78,336.35 796.70,330.15 C801.59,323.99 812.07,312.57 817.74,307.31 C823.49,302.10 835.84,292.29 842.28,287.83 C849.68,282.73 860.99,276.20 869.12,272.34 C876.19,268.99 890.86,263.20 898.25,260.83 C905.64,258.55 920.77,255.18 928.55,254.02 C936.37,252.87 953.14,251.51 959.67,251.50 Z" fill="none" stroke="rgb(0, 0, 0)" stroke-width="5.04" stroke-opacity="1.00" stroke-linejoin="round"/>
</g>
<g stroke-linecap="round" id="Layer_14">
<path d="M2.39,460.48 L55.38,460.48" fill="none" stroke="rgb(0, 0, 0)" stroke-width="4.78" stroke-opacity="1.00" stroke-linejoin="round"/>
<path d="M109.52,460.48 L290.14,460.48" fill="none" stroke="rgb(0, 0, 0)" stroke-width="4.78" stroke-opacity="1.00" stroke-linejoin="round"/>
<path d="M302.41,460.48 L316.31,460.48 L316.42,460.23" fill="none" stroke="rgb(0, 0, 0)" stroke-width="4.78" stroke-opacity="1.00" stroke-linejoin="round"/>
<path d="M341.37,460.48 L364.39,460.48 L365.15,459.80 L365.29,459.61 L365.39,459.39" fill="none" stroke="rgb(0, 0, 0)" stroke-width="4.78" stroke-opacity="1.00" stroke-linejoin="round"/>
<path d="M555.19,460.48 L622.04,460.48" fill="none" stroke="rgb(0, 0, 0)" stroke-width="4.78" stroke-opacity="1.00" stroke-linejoin="round"/>
<path d="M1298.44,460.48 L1367.35,460.48" fill="none" stroke="rgb(0, 0, 0)" stroke-width="4.78" stroke-opacity="1.00" stroke-linejoin="round"/>
<path d="M1556.43,460.48 L1582.42,460.48" fill="none" stroke="rgb(0, 0, 0)" stroke-width="4.78" stroke-opacity="1.00" stroke-linejoin="round"/>
<path d="M1605.51,460.48 L1620.00,460.48" fill="none" stroke="rgb(0, 0, 0)" stroke-width="4.78" stroke-opacity="1.00" stroke-linejoin="round"/>
<path d="M1632.03,460.48 L1818.64,460.48" fill="none" stroke="rgb(0, 0, 0)" stroke-width="4.78" stroke-opacity="1.00" stroke-linejoin="round"/>
<path d="M1822.09,458.33 L1822.57,457.21" fill="none" stroke="rgb(0, 0, 0)" stroke-width="4.78" stroke-opacity="1.00" stroke-linejoin="round"/>
<path d="M1874.12,460.48 L1917.61,460.48" fill="none" stroke="rgb(0, 0, 0)" stroke-width="4.78" stroke-opacity="1.00" stroke-linejoin="round"/>
</g>
<g stroke-linecap="round" id="Layer_15">
<path d="M459.37,365.33 C466.01,365.35 482.14,367.90 488.45,369.94 C494.75,372.00 509.31,379.42 514.68,383.30 C520.04,387.21 531.59,398.76 535.50,404.12 C539.39,409.49 546.80,424.05 548.87,430.35 C550.90,436.66 553.46,452.80 553.47,459.43 C553.46,466.06 550.90,482.20 548.87,488.51 C546.80,494.81 539.39,509.37 535.50,514.74 C531.59,520.10 520.04,531.65 514.68,535.56 C509.31,539.44 494.75,546.86 488.45,548.92 C482.14,550.96 466.01,553.51 459.37,553.53 C452.74,553.51 436.61,550.96 430.30,548.92 C423.99,546.86 409.44,539.44 404.06,535.56 C398.71,531.65 387.16,520.10 383.25,514.74 C379.36,509.37 371.94,494.81 369.88,488.51 C367.85,482.20 365.29,466.06 365.28,459.43 C365.29,452.80 367.85,436.66 369.88,430.35 C371.94,424.05 379.36,409.49 383.25,404.12 C387.16,398.76 398.71,387.21 404.06,383.30 C409.44,379.42 423.99,372.00 430.30,369.94 C436.61,367.90 452.74,365.35 459.37,365.33 Z" fill="none" stroke="rgb(0, 0, 0)" stroke-width="2.77" stroke-opacity="1.00" stroke-linejoin="round"/>
<path d="M328.02,449.59 C329.32,449.61 332.20,450.43 333.49,451.13 C334.81,451.88 336.66,453.73 337.41,455.05 C338.11,456.34 338.93,459.22 338.95,460.52 C338.93,461.83 338.11,464.70 337.41,465.99 C336.66,467.31 334.81,469.16 333.49,469.92 C332.20,470.61 329.32,471.43 328.02,471.45 C326.71,471.43 323.84,470.61 322.55,469.92 C321.22,469.16 319.38,467.31 318.62,465.99 C317.93,464.70 317.11,461.83 317.09,460.52 C317.11,459.22 317.93,456.34 318.62,455.05 C319.38,453.73 321.22,451.88 322.55,451.13 C323.84,450.43 326.71,449.61 328.02,449.59 Z" fill="none" stroke="rgb(0, 0, 0)" stroke-width="3.00" stroke-opacity="1.00" stroke-linejoin="round"/>
<path d="M296.60,455.74 C298.56,455.78 301.34,458.56 301.38,460.52 C301.34,462.49 298.56,465.27 296.60,465.30 C294.63,465.27 291.85,462.49 291.82,460.52 C291.85,458.56 294.63,455.78 296.60,455.74 Z" fill="none" stroke="rgb(0, 0, 0)" stroke-width="3.00" stroke-opacity="1.00" stroke-linejoin="round"/>
<path d="M81.72,434.13 C84.77,434.15 91.96,436.08 94.61,437.59 C97.25,439.13 102.51,444.39 104.05,447.02 C105.56,449.68 107.49,456.86 107.51,459.92 C107.49,462.97 105.56,470.16 104.05,472.81 C102.51,475.45 97.25,480.71 94.61,482.25 C91.96,483.76 84.77,485.68 81.72,485.70 C78.67,485.68 71.48,483.76 68.83,482.25 C66.19,480.71 60.93,475.45 59.39,472.81 C57.88,470.16 55.95,462.97 55.93,459.92 C55.95,456.86 57.88,449.68 59.39,447.02 C60.93,444.39 66.19,439.13 68.83,437.59 C71.48,436.08 78.67,434.15 81.72,434.13 Z" fill="none" stroke="rgb(0, 0, 0)" stroke-width="3.00" stroke-opacity="1.00" stroke-linejoin="round"/>
<path d="M1462.27,366.96 C1468.73,366.98 1484.11,369.48 1491.08,371.65 C1498.01,373.83 1510.90,380.58 1516.96,384.92 C1523.55,389.68 1532.69,398.82 1537.45,405.42 C1541.79,411.47 1548.55,424.37 1550.73,431.29 C1552.89,438.26 1555.39,453.64 1555.41,460.10 C1555.39,466.57 1552.89,481.95 1550.73,488.92 C1548.55,495.84 1541.79,508.74 1537.45,514.79 C1532.69,521.38 1523.55,530.52 1516.96,535.28 C1510.90,539.63 1498.01,546.38 1491.08,548.56 C1484.11,550.72 1468.73,553.23 1462.27,553.24 C1455.81,553.23 1440.43,550.72 1433.45,548.56 C1426.53,546.38 1413.64,539.63 1407.58,535.28 C1400.99,530.52 1391.85,521.38 1387.09,514.79 C1382.75,508.74 1375.99,495.84 1373.81,488.92 C1371.65,481.95 1369.15,466.57 1369.13,460.10 C1369.15,453.64 1371.65,438.26 1373.81,431.29 C1375.99,424.37 1382.75,411.47 1387.09,405.42 C1391.85,398.82 1400.99,389.68 1407.58,384.92 C1413.64,380.58 1426.53,373.83 1433.45,371.65 C1440.43,369.48 1455.81,366.98 1462.27,366.96 Z" fill="none" stroke="rgb(0, 0, 0)" stroke-width="3.00" stroke-opacity="1.00" stroke-linejoin="round"/>
<path d="M1593.28,450.48 C1594.54,450.49 1597.32,451.29 1598.57,451.96 C1599.85,452.69 1601.63,454.47 1602.36,455.75 C1603.03,457.00 1603.82,459.77 1603.84,461.03 C1603.82,462.30 1603.03,465.07 1602.36,466.32 C1601.63,467.60 1599.85,469.38 1598.57,470.11 C1597.32,470.78 1594.54,471.57 1593.28,471.59 C1592.02,471.57 1589.25,470.78 1588.00,470.11 C1586.72,469.38 1584.94,467.60 1584.21,466.32 C1583.54,465.07 1582.74,462.30 1582.73,461.03 C1582.74,459.77 1583.54,457.00 1584.21,455.75 C1584.94,454.47 1586.72,452.69 1588.00,451.96 C1589.25,451.29 1592.02,450.49 1593.28,450.48 Z" fill="none" stroke="rgb(0, 0, 0)" stroke-width="3.00" stroke-opacity="1.00" stroke-linejoin="round"/>
<path d="M1625.57,456.07 C1627.49,456.10 1630.19,458.81 1630.23,460.72 C1630.19,462.64 1627.49,465.34 1625.57,465.38 C1623.66,465.34 1620.95,462.64 1620.91,460.72 C1620.95,458.81 1623.66,456.10 1625.57,456.07 Z" fill="none" stroke="rgb(0, 0, 0)" stroke-width="3.00" stroke-opacity="1.00" stroke-linejoin="round"/>
<path d="M1846.15,435.58 C1849.11,435.60 1856.08,437.46 1858.65,438.92 C1861.20,440.42 1866.30,445.52 1867.80,448.07 C1869.26,450.64 1871.13,457.61 1871.15,460.57 C1871.13,463.53 1869.26,470.49 1867.80,473.06 C1866.30,475.62 1861.20,480.72 1858.65,482.21 C1856.08,483.67 1849.11,485.54 1846.15,485.56 C1843.20,485.54 1836.23,483.67 1833.66,482.21 C1831.11,480.72 1826.01,475.62 1824.51,473.06 C1823.05,470.49 1821.18,463.53 1821.16,460.57 C1821.18,457.61 1823.05,450.64 1824.51,448.07 C1826.01,445.52 1831.11,440.42 1833.66,438.92 C1836.23,437.46 1843.20,435.60 1846.15,435.58 Z" fill="none" stroke="rgb(0, 0, 0)" stroke-width="3.00" stroke-opacity="1.00" stroke-linejoin="round"/>
</g>
</svg>
