<svg width="428" height="428" viewBox="0 0 428 428" fill="none" xmlns="http://www.w3.org/2000/svg">
<path d="M10.3339 134.342C10.3339 134.342 10.4637 149.267 6.67068 174.531C3.76335 193.896 2.3548e-05 199.523 2.3548e-05 199.523C2.3548e-05 199.523 3.76332 208.517 6.67066 225.626C10.4637 247.947 10.3339 399.581 10.3339 399.581C10.3339 399.581 10.2043 247.947 13.9974 225.626C16.9047 208.517 20.668 199.523 20.668 199.523C20.668 199.523 16.9047 193.896 13.9974 174.531C10.2043 149.267 10.3339 134.342 10.3339 134.342Z" fill="black"/>
<path d="M10.334 103.34C10.334 103.34 10.3645 102.633 9.47284 92.5034C8.7894 84.739 6.02816 80.0585 6.02816 80.0585C6.02816 80.0585 8.78939 74.9354 9.47284 67.171C10.3645 57.0412 10.3339 34.4467 10.3339 34.4467C10.3339 34.4467 10.3035 57.0412 11.1952 67.171C11.8786 74.9354 14.6398 80.0585 14.6398 80.0585C14.6398 80.0585 11.8786 84.739 11.1952 92.5034C10.3035 102.633 10.334 103.34 10.334 103.34Z" fill="black"/>
<path d="M35.3078 101.618C35.3078 101.618 35.2835 102.324 35.9968 112.454C36.5435 120.219 39.6137 124.899 39.6137 124.899C39.6137 124.899 36.5435 130.022 35.9968 137.787C35.2834 147.917 35.3079 170.511 35.3079 170.511C35.3079 170.511 35.3322 147.917 34.6189 137.787C34.0721 130.022 31.002 124.899 31.002 124.899C31.002 124.899 34.0722 120.219 34.6189 112.454C35.3322 102.324 35.3078 101.618 35.3078 101.618Z" fill="black"/>
<path d="M35.3079 328.966C35.3079 328.966 35.2688 327.517 36.4101 306.751C37.285 290.834 42.1972 281.239 42.1972 281.239C42.1972 281.239 37.285 270.736 36.4101 254.819C35.2688 234.053 35.3079 187.734 35.3079 187.734C35.3079 187.734 35.3469 234.053 34.2055 254.819C33.3307 270.736 28.4185 281.239 28.4185 281.239C28.4185 281.239 33.3308 290.834 34.2056 306.751C35.3469 327.517 35.3079 328.966 35.3079 328.966Z" fill="black"/>
<circle cx="35.3078" cy="34.4467" r="13.7787" fill="black"/>
<circle cx="3.44467" cy="3.44467" r="3.44467" transform="matrix(1 0 0 -1 31.8632 96.4507)" fill="black"/>
<circle cx="2.5835" cy="2.5835" r="2.5835" transform="matrix(1 0 0 -1 7.75049 127.453)" fill="black"/>
<circle cx="2.5835" cy="2.5835" r="2.5835" transform="matrix(1 0 0 -1 7.75049 411.638)" fill="black"/>
<circle cx="4.30583" cy="4.30583" r="4.30583" transform="matrix(1 0 0 -1 6.0282 427.139)" fill="black"/>
<circle cx="1.72233" cy="1.72233" r="1.72233" transform="matrix(1 0 0 -1 33.5855 180.845)" fill="black"/>
<circle cx="1.72233" cy="1.72233" r="1.72233" transform="matrix(1 0 0 -1 33.5855 339.3)" fill="black"/>
<path d="M135.203 10.3339C135.203 10.3339 150.128 10.4637 175.392 6.67068C194.757 3.76335 200.384 2.06989e-05 200.384 2.06989e-05C200.384 2.06989e-05 209.378 3.76332 226.487 6.67066C248.808 10.4637 400.443 10.3339 400.443 10.3339C400.443 10.3339 248.808 10.2043 226.487 13.9974C209.378 16.9047 200.384 20.668 200.384 20.668C200.384 20.668 194.757 16.9047 175.392 13.9974C150.128 10.2043 135.203 10.3339 135.203 10.3339Z" fill="black"/>
<path d="M104.201 10.334C104.201 10.334 103.494 10.3645 93.3646 9.47287C85.6001 8.78943 80.9196 6.02819 80.9196 6.02819C80.9196 6.02819 75.7966 8.78943 68.0322 9.47287C57.9023 10.3645 35.3078 10.334 35.3078 10.334C35.3078 10.334 57.9023 10.3035 68.0322 11.1952C75.7966 11.8786 80.9196 14.6399 80.9196 14.6399C80.9196 14.6399 85.6001 11.8786 93.3646 11.1952C103.494 10.3035 104.201 10.334 104.201 10.334Z" fill="black"/>
<path d="M102.479 35.3079C102.479 35.3079 103.186 35.2835 113.315 35.9968C121.08 36.5436 125.76 39.6137 125.76 39.6137C125.76 39.6137 130.883 36.5436 138.648 35.9968C148.778 35.2835 171.372 35.3079 171.372 35.3079C171.372 35.3079 148.778 35.3322 138.648 34.6189C130.883 34.0722 125.76 31.002 125.76 31.002C125.76 31.002 121.08 34.0722 113.315 34.6189C103.186 35.3323 102.479 35.3079 102.479 35.3079Z" fill="black"/>
<path d="M329.827 35.3079C329.827 35.3079 328.378 35.2689 307.612 36.4102C291.695 37.285 282.1 42.1972 282.1 42.1972C282.1 42.1972 271.597 37.285 255.68 36.4102C234.914 35.2688 188.596 35.3079 188.596 35.3079C188.596 35.3079 234.914 35.3469 255.68 34.2056C271.597 33.3308 282.1 28.4185 282.1 28.4185C282.1 28.4185 291.695 33.3308 307.612 34.2056C328.378 35.3469 329.827 35.3079 329.827 35.3079Z" fill="black"/>
<circle cx="93.8672" cy="35.3079" r="3.44467" transform="rotate(90 93.8672 35.3079)" fill="black"/>
<circle cx="125.73" cy="10.334" r="2.5835" transform="rotate(90 125.73 10.334)" fill="black"/>
<circle cx="409.915" cy="10.334" r="2.5835" transform="rotate(90 409.915 10.334)" fill="black"/>
<circle cx="423.694" cy="10.334" r="4.30583" transform="rotate(90 423.694 10.334)" fill="black"/>
<circle cx="179.984" cy="35.3079" r="1.72233" transform="rotate(90 179.984 35.3079)" fill="black"/>
<circle cx="338.439" cy="35.3079" r="1.72233" transform="rotate(90 338.439 35.3079)" fill="black"/>
</svg>
