<svg width="364" height="24" viewBox="0 0 364 24" fill="none" xmlns="http://www.w3.org/2000/svg">
<circle cx="182" cy="15" r="9" fill="black"/>
<circle cx="1" cy="1" r="1" transform="matrix(-1 0 0 1 14 14)" fill="black"/>
<circle cx="1" cy="1" r="1" transform="matrix(-1 0 0 1 122 14)" fill="black"/>
<circle cx="2" cy="2" r="2" transform="matrix(-1 0 0 1 4 13)" fill="black"/>
<path d="M112 15C112 15 100.529 14.6069 95.2555 13.0756C89.9817 11.5443 88.6278 10 88.6278 10C88.6278 10 87.2738 11.5443 82 13.0756C76.7262 14.6069 22 15 22 15C22 15 76.7262 15.3931 82 16.9244C87.2738 18.4557 88.6278 20 88.6278 20C88.6278 20 89.9817 18.4557 95.2555 16.9244C100.529 15.3931 112 15 112 15Z" fill="black"/>
<path d="M165 15C165 15 160.539 14.6855 158.488 13.4605C156.437 12.2355 155.911 11 155.911 11C155.911 11 155.384 12.2355 153.333 13.4605C151.282 14.6855 130 15 130 15C130 15 151.282 15.3145 153.333 16.5395C155.384 17.7645 155.911 19 155.911 19C155.911 19 156.437 17.7645 158.488 16.5395C160.539 15.3145 165 15 165 15Z" fill="black"/>
<path d="M146 5C146 5 137.219 4.60687 133 3.07559C128.781 1.54431 128 1.66869e-07 128 1.66869e-07C128 1.66869e-07 126.917 1.54433 122.698 3.07561C118.479 4.60688 74 5 74 5C74 5 118.479 5.39312 122.698 6.9244C126.917 8.45567 128 10 128 10C128 10 128.781 8.53128 133 7C137.219 5.46872 146 5 146 5Z" fill="black"/>
<circle cx="2" cy="2" r="2" transform="matrix(-1 0 0 1 158 3)" fill="black"/>
<circle cx="1" cy="1" r="1" transform="matrix(-1 0 0 1 66 4)" fill="black"/>
<circle cx="2" cy="2" r="2" transform="matrix(-1 0 0 1 56 3)" fill="black"/>
<circle cx="351" cy="15" r="1" fill="black"/>
<circle cx="243" cy="15" r="1" fill="black"/>
<circle cx="362" cy="15" r="2" fill="black"/>
<path d="M252 15C252 15 263.471 14.6069 268.744 13.0756C274.018 11.5443 275.372 10 275.372 10C275.372 10 276.726 11.5443 282 13.0756C287.274 14.6069 342 15 342 15C342 15 287.274 15.3931 282 16.9244C276.726 18.4557 275.372 20 275.372 20C275.372 20 274.018 18.4557 268.744 16.9244C263.471 15.3931 252 15 252 15Z" fill="black"/>
<path d="M199 15C199 15 203.461 14.6855 205.512 13.4605C207.563 12.2355 208.089 11 208.089 11C208.089 11 208.616 12.2355 210.667 13.4605C212.718 14.6855 234 15 234 15C234 15 212.718 15.3145 210.667 16.5395C208.616 17.7645 208.089 19 208.089 19C208.089 19 207.563 17.7645 205.512 16.5395C203.461 15.3145 199 15 199 15Z" fill="black"/>
<path d="M218 5C218 5 226.781 4.60687 231 3.07559C235.219 1.54431 236 1.66869e-07 236 1.66869e-07C236 1.66869e-07 237.083 1.54433 241.302 3.07561C245.521 4.60688 290 5 290 5C290 5 245.521 5.39312 241.302 6.9244C237.083 8.45567 236 10 236 10C236 10 235.219 8.53128 231 7C226.781 5.46872 218 5 218 5Z" fill="black"/>
<circle cx="208" cy="5" r="2" fill="black"/>
<circle cx="299" cy="5" r="1" fill="black"/>
<circle cx="310" cy="5" r="2" fill="black"/>
</svg>
