<svg width="687" height="248" viewBox="0 0 687 248" fill="none" xmlns="http://www.w3.org/2000/svg">
<path d="M381 43.0013C381 43.0013 384.33 46.2375 391 55.6723C396.111 62.9039 398.455 67.9912 398.455 67.9912C398.455 67.9912 403.071 69.8637 410.303 74.9756C419.738 81.6448 503.5 165.501 503.5 165.501C503.5 165.501 419.643 81.7394 412.974 72.3046C407.862 65.0729 405.99 60.4566 405.99 60.4566C405.99 60.4566 400.902 58.1132 393.671 53.0013C384.236 46.3321 381 43.0013 381 43.0013Z" fill="black"/>
<path d="M343.5 60.0013C343.5 60.0013 343.569 65.0404 341.55 77.3978C340.003 86.8696 338 92.5715 338 92.5715C338 92.5715 340.003 97.5506 341.55 107.022C343.569 119.38 343.5 248.001 343.5 248.001C343.5 248.001 343.431 119.38 345.45 107.022C346.997 97.5506 349 92.5715 349 92.5715C349 92.5715 346.997 86.8696 345.45 77.3978C343.431 65.0404 343.5 60.0013 343.5 60.0013Z" fill="black"/>
<path d="M382.103 39.1183C382.103 39.1183 386.721 40.3005 395.116 44.1693C401.55 47.1347 405.208 49.7219 405.208 49.7219C405.208 49.7219 409.156 49.1727 416.21 49.8216C425.415 50.6682 465.918 61.5765 465.918 61.5765C465.918 61.5765 425.387 50.7716 416.993 46.9027C410.558 43.9373 407.415 41.488 407.415 41.488C407.415 41.488 402.953 41.8994 395.898 41.2504C386.694 40.4038 382.103 39.1183 382.103 39.1183Z" fill="black"/>
<path d="M402.33 52.3057C402.33 52.3057 404.924 53.7649 409.361 57.4542C412.762 60.2821 414.55 62.4334 414.55 62.4334C414.55 62.4334 417.019 62.7399 421.168 64.2712C426.582 66.2689 449.244 79.3914 449.244 79.3914C449.244 79.3914 426.549 66.3268 422.112 62.6374C418.711 59.8095 417.211 57.8246 417.211 57.8246C417.211 57.8246 414.454 57.3517 410.304 55.8205C404.891 53.8227 402.33 52.3057 402.33 52.3057Z" fill="black"/>
<path d="M387.304 59.3317C387.304 59.3317 388.821 61.8925 390.819 67.3061C392.35 71.4555 392.823 74.2125 392.823 74.2125C392.823 74.2125 394.808 75.7125 397.636 79.1133C401.325 83.5502 414.39 106.246 414.39 106.246C414.39 106.246 401.267 83.5836 399.27 78.1701C397.738 74.0207 397.432 71.5517 397.432 71.5517C397.432 71.5517 395.28 69.7636 392.453 66.3628C388.763 61.9259 387.304 59.3317 387.304 59.3317Z" fill="black"/>
<path d="M343.5 56.0013C343.5 56.0013 343.469 53.8586 344.386 49.7642C345.09 46.6259 346 44.7367 346 44.7367C346 44.7367 345.09 43.087 344.386 39.9487C343.469 35.8543 343.5 17.0013 343.5 17.0013C343.5 17.0013 343.531 35.8543 342.614 39.9487C341.91 43.087 341 44.7367 341 44.7367C341 44.7367 341.91 46.6259 342.614 49.7642C343.531 53.8586 343.5 56.0013 343.5 56.0013Z" fill="black"/>
<path d="M393 5.50143C393 5.50143 390.802 5.53282 386.603 4.61521C383.384 3.91187 381.447 3.00145 381.447 3.00145C381.447 3.00145 379.755 3.91186 376.536 4.61521C372.336 5.53283 353 5.50142 353 5.50142C353 5.50142 372.336 5.47007 376.536 6.38769C379.755 7.09103 381.447 8.00145 381.447 8.00145C381.447 8.00145 383.384 7.09102 386.603 6.38768C390.802 5.47007 393 5.50143 393 5.50143Z" fill="black"/>
<path d="M397 5.50139C397 5.50139 453.958 5.57046 465.744 3.55171C474.778 2.00436 480.762 0.00142574 480.762 0.00142574C480.762 0.00142574 484.966 2.00435 494 3.5517C505.786 5.57046 687 5.50138 687 5.50138C687 5.50138 505.786 5.43241 494 7.45116C484.966 8.99852 480.762 11.0014 480.762 11.0014C480.762 11.0014 474.778 8.9985 465.744 7.45115C453.958 5.4324 397 5.50139 397 5.50139Z" fill="black"/>
<path d="M377.117 44.1044C377.117 44.1044 378.402 48.6955 379.249 57.8997C379.898 64.9545 379.486 69.4164 379.486 69.4164C379.486 69.4164 381.936 72.5601 384.901 78.9943C388.77 87.3886 399.575 127.92 399.575 127.92C399.575 127.92 388.667 87.4163 387.82 78.2122C387.171 71.1573 387.72 67.2101 387.72 67.2101C387.72 67.2101 385.133 63.5517 382.168 57.1175C378.299 48.7232 377.117 44.1044 377.117 44.1044Z" fill="black"/>
<path d="M687 6.00142C687 7.10599 686.105 8.00142 685 8.00142C683.895 8.00142 683 7.10599 683 6.00142C683 4.89685 683.895 4.00142 685 4.00142C686.105 4.00142 687 4.89685 687 6.00142Z" fill="black"/>
<path d="M358 42.0013C358 43.1059 357.105 44.0013 356 44.0013C354.895 44.0013 354 43.1059 354 42.0013C354 40.8967 354.895 40.0013 356 40.0013C357.105 40.0013 358 40.8967 358 42.0013Z" fill="black"/>
<path d="M381 19.0013C381 20.1059 380.105 21.0013 379 21.0013C377.895 21.0013 377 20.1059 377 19.0013C377 17.8967 377.895 17.0013 379 17.0013C380.105 17.0013 381 17.8967 381 19.0013Z" fill="black"/>
<path d="M625 19.0013C625 20.1059 624.105 21.0013 623 21.0013C621.895 21.0013 621 20.1059 621 19.0013C621 17.8967 621.895 17.0013 623 17.0013C624.105 17.0013 625 17.8967 625 19.0013Z" fill="black"/>
<path d="M357 91.5018C357 92.054 356.552 92.5018 356 92.5018C355.448 92.5018 355 92.054 355 91.5018C355 90.9495 355.448 90.5018 356 90.5018C356.552 90.5018 357 90.9495 357 91.5018Z" fill="black"/>
<path d="M434 19.0013C434 19.5536 433.552 20.0013 433 20.0013C432.448 20.0013 432 19.5536 432 19.0013C432 18.449 432.448 18.0013 433 18.0013C433.552 18.0013 434 18.449 434 19.0013Z" fill="black"/>
<path d="M499 160.002C499 160.554 498.552 161.002 498 161.002C497.448 161.002 497 160.554 497 160.002C497 159.449 497.448 159.002 498 159.002C498.552 159.002 499 159.449 499 160.002Z" fill="black"/>
<path d="M618 19.0013C618 19.5536 617.552 20.0013 617 20.0013C616.448 20.0013 616 19.5536 616 19.0013C616 18.449 616.448 18.0013 617 18.0013C617.552 18.0013 618 18.449 618 19.0013Z" fill="black"/>
<path d="M377 33.0013C377 36.315 374.313 39.0013 371 39.0013C367.686 39.0013 365 36.315 365 33.0013C365 29.6876 367.686 27.0013 371 27.0013C374.313 27.0013 377 29.6876 377 33.0013Z" fill="black"/>
<path d="M504.999 165.002C504.999 166.106 504.104 167.002 502.999 167.002C501.895 167.002 500.999 166.106 500.999 165.002C500.999 163.897 501.895 163.002 502.999 163.002C504.104 163.002 504.999 163.897 504.999 165.002Z" fill="black"/>
<path d="M471.999 63.0013C471.999 63.5536 471.552 64.0013 470.999 64.0013C470.447 64.0013 469.999 63.5536 469.999 63.0013C469.999 62.449 470.447 62.0013 470.999 62.0013C471.552 62.0013 471.999 62.449 471.999 63.0013Z" fill="black"/>
<path d="M402 132.002C402 132.554 401.552 133.002 401 133.002C400.447 133.002 400 132.554 400 132.002C400 131.449 400.447 131.002 401 131.002C401.552 131.002 402 131.449 402 132.002Z" fill="black"/>
<path d="M681 6.00142C681 6.55371 680.552 7.00142 680 7.00142C679.448 7.00142 679 6.55371 679 6.00142C679 5.44914 679.448 5.00142 680 5.00142C680.552 5.00142 681 5.44914 681 6.00142Z" fill="black"/>
<path d="M356 46.0013C356 46.0013 356.166 50.3162 356.81 54.8294C357.455 59.3426 359 60.5013 359 60.5013C359 60.5013 357.455 61.9881 356.81 66.5013C356.166 71.0145 356 87.0013 356 87.0013C356 87.0013 355.834 71.0145 355.19 66.5013C354.545 61.9881 353 60.5013 353 60.5013C353 60.5013 354.545 59.3426 355.19 54.8294C355.834 50.3162 356 46.0013 356 46.0013Z" fill="black"/>
<path d="M385 19.0013C385 19.0013 389.315 18.8358 393.828 18.191C398.341 17.5463 399.5 16.0013 399.5 16.0013C399.5 16.0013 400.987 17.5463 405.5 18.191C410.013 18.8358 426 19.0013 426 19.0013C426 19.0013 410.013 19.1668 405.5 19.8116C400.987 20.4563 399.5 22.0013 399.5 22.0013C399.5 22.0013 398.341 20.4563 393.828 19.8116C389.315 19.1668 385 19.0013 385 19.0013Z" fill="black"/>
<path d="M441 19.0013C441 19.0013 475.377 18.8358 487.681 18.191C499.985 17.5463 502.89 16.0013 502.89 16.0013C502.89 16.0013 507.196 17.5463 519.5 18.191C531.804 18.8358 616 19.0013 616 19.0013C616 19.0013 531.804 19.1668 519.5 19.8116C507.196 20.4563 502.89 22.0013 502.89 22.0013C502.89 22.0013 499.985 20.4563 487.681 19.8116C475.377 19.1668 441 19.0013 441 19.0013Z" fill="black"/>
<path d="M306 43C306 43 302.67 46.2362 296 55.671C290.888 62.9027 288.545 67.9899 288.545 67.9899C288.545 67.9899 283.929 69.8624 276.697 74.9743C267.262 81.6435 183.5 165.5 183.5 165.5C183.5 165.5 267.357 81.7381 274.026 72.3033C279.138 65.0716 281.01 60.4553 281.01 60.4553C281.01 60.4553 286.098 58.1119 293.329 53C302.764 46.3308 306 43 306 43Z" fill="black"/>
<path d="M304.897 39.117C304.897 39.117 300.279 40.2992 291.884 44.168C285.45 47.1335 281.792 49.7206 281.792 49.7206C281.792 49.7206 277.844 49.1714 270.79 49.8203C261.585 50.667 221.082 61.5752 221.082 61.5752C221.082 61.5752 261.613 50.7703 270.007 46.9014C276.442 43.936 279.585 41.4867 279.585 41.4867C279.585 41.4867 284.047 41.8981 291.102 41.2492C300.306 40.4025 304.897 39.117 304.897 39.117Z" fill="black"/>
<path d="M284.67 52.3044C284.67 52.3044 282.076 53.7636 277.639 57.4529C274.238 60.2808 272.45 62.4321 272.45 62.4321C272.45 62.4321 269.981 62.7386 265.832 64.2699C260.418 66.2676 237.756 79.3901 237.756 79.3901C237.756 79.3901 260.452 66.3255 264.888 62.6361C268.289 59.8083 269.789 57.8233 269.789 57.8233C269.789 57.8233 272.546 57.3504 276.696 55.8192C282.109 53.8214 284.67 52.3044 284.67 52.3044Z" fill="black"/>
<path d="M299.696 59.3304C299.696 59.3304 298.179 61.8913 296.181 67.3048C294.65 71.4542 294.177 74.2112 294.177 74.2112C294.177 74.2112 292.192 75.7112 289.364 79.1121C285.675 83.5489 272.61 106.244 272.61 106.244C272.61 106.244 285.733 83.5823 287.73 78.1688C289.262 74.0194 289.568 71.5504 289.568 71.5504C289.568 71.5504 291.72 69.7623 294.547 66.3615C298.237 61.9246 299.696 59.3304 299.696 59.3304Z" fill="black"/>
<path d="M294 5.50002C294 5.50002 296.198 5.53141 300.397 4.6138C303.616 3.91046 305.553 3.00004 305.553 3.00004C305.553 3.00004 307.245 3.91045 310.464 4.6138C314.664 5.53142 334 5.50001 334 5.50001C334 5.50001 314.664 5.46866 310.464 6.38628C307.245 7.08962 305.553 8.00004 305.553 8.00004C305.553 8.00004 303.616 7.08962 300.397 6.38627C296.198 5.46866 294 5.50002 294 5.50002Z" fill="black"/>
<path d="M290 5.49996C290 5.49996 233.042 5.56903 221.256 3.55028C212.222 2.00293 206.238 0 206.238 0C206.238 0 202.034 2.00292 193 3.55028C181.214 5.56904 0 5.49996 0 5.49996C0 5.49996 181.214 5.43098 193 7.44974C202.034 8.99709 206.238 11 206.238 11C206.238 11 212.222 8.99708 221.256 7.44973C233.042 5.43098 290 5.49996 290 5.49996Z" fill="black"/>
<path d="M309.883 44.1031C309.883 44.1031 308.598 48.6942 307.751 57.8984C307.102 64.9532 307.514 69.4151 307.514 69.4151C307.514 69.4151 305.064 72.5588 302.099 78.993C298.23 87.3874 287.425 127.918 287.425 127.918C287.425 127.918 298.333 87.415 299.18 78.2109C299.829 71.156 299.28 67.2088 299.28 67.2088C299.28 67.2088 301.867 63.5504 304.832 57.1162C308.701 48.7219 309.883 44.1031 309.883 44.1031Z" fill="black"/>
<path d="M1.19409e-06 6.00001C1.19409e-06 7.10458 0.895432 8.00001 2 8.00001C3.10457 8.00001 4 7.10458 4 6.00001C4 4.89544 3.10457 4.00001 2 4.00001C0.895432 4.00001 1.19409e-06 4.89544 1.19409e-06 6.00001Z" fill="black"/>
<path d="M329 42C329 43.1046 329.895 44 331 44C332.105 44 333 43.1046 333 42C333 40.8954 332.105 40 331 40C329.895 40 329 40.8954 329 42Z" fill="black"/>
<path d="M306 19C306 20.1046 306.895 21 308 21C309.105 21 310 20.1046 310 19C310 17.8954 309.105 17 308 17C306.895 17 306 17.8954 306 19Z" fill="black"/>
<path d="M62 19C62 20.1046 62.8954 21 64 21C65.1046 21 66 20.1046 66 19C66 17.8954 65.1046 17 64 17C62.8954 17 62 17.8954 62 19Z" fill="black"/>
<path d="M330 91.5C330 92.0523 330.448 92.5 331 92.5C331.552 92.5 332 92.0523 332 91.5C332 90.9477 331.552 90.5 331 90.5C330.448 90.5 330 90.9477 330 91.5Z" fill="black"/>
<path d="M253 19C253 19.5523 253.448 20 254 20C254.552 20 255 19.5523 255 19C255 18.4477 254.552 18 254 18C253.448 18 253 18.4477 253 19Z" fill="black"/>
<path d="M188 160C188 160.552 188.448 161 189 161C189.552 161 190 160.552 190 160C190 159.448 189.552 159 189 159C188.448 159 188 159.448 188 160Z" fill="black"/>
<path d="M69 19C69 19.5523 69.4477 20 70 20C70.5523 20 71 19.5523 71 19C71 18.4477 70.5523 18 70 18C69.4477 18 69 18.4477 69 19Z" fill="black"/>
<path d="M310 33C310 36.3137 312.687 39 316 39C319.314 39 322 36.3137 322 33C322 29.6863 319.314 27 316 27C312.687 27 310 29.6863 310 33Z" fill="black"/>
<path d="M182.001 165C182.001 166.105 182.896 167 184.001 167C185.105 167 186.001 166.105 186.001 165C186.001 163.895 185.105 163 184.001 163C182.896 163 182.001 163.895 182.001 165Z" fill="black"/>
<path d="M215.001 63C215.001 63.5523 215.448 64 216.001 64C216.553 64 217.001 63.5523 217.001 63C217.001 62.4477 216.553 62 216.001 62C215.448 62 215.001 62.4477 215.001 63Z" fill="black"/>
<path d="M285 132C285 132.552 285.448 133 286 133C286.553 133 287 132.552 287 132C287 131.448 286.553 131 286 131C285.448 131 285 131.448 285 132Z" fill="black"/>
<path d="M6 6.00001C6 6.55229 6.44772 7.00001 7 7.00001C7.55229 7.00001 8 6.55229 8 6.00001C8 5.44772 7.55229 5.00001 7 5.00001C6.44772 5.00001 6 5.44772 6 6.00001Z" fill="black"/>
<path d="M331 46C331 46 330.834 50.3149 330.19 54.8281C329.545 59.3413 328 60.5 328 60.5C328 60.5 329.545 61.9868 330.19 66.5C330.834 71.0132 331 87 331 87C331 87 331.166 71.0132 331.81 66.5C332.455 61.9868 334 60.5 334 60.5C334 60.5 332.455 59.3413 331.81 54.8281C331.166 50.3149 331 46 331 46Z" fill="black"/>
<path d="M302 19C302 19 297.685 18.8345 293.172 18.1897C288.659 17.545 287.5 16 287.5 16C287.5 16 286.013 17.545 281.5 18.1897C276.987 18.8345 261 19 261 19C261 19 276.987 19.1655 281.5 19.8103C286.013 20.455 287.5 22 287.5 22C287.5 22 288.659 20.455 293.172 19.8103C297.685 19.1655 302 19 302 19Z" fill="black"/>
<path d="M246 19C246 19 211.623 18.8345 199.319 18.1897C187.015 17.545 184.11 16 184.11 16C184.11 16 179.804 17.545 167.5 18.1897C155.196 18.8345 71 19 71 19C71 19 155.196 19.1655 167.5 19.8103C179.804 20.455 184.11 22 184.11 22C184.11 22 187.015 20.455 199.319 19.8103C211.623 19.1655 246 19 246 19Z" fill="black"/>
</svg>
