<svg width="431" height="106" viewBox="0 0 431 106" fill="none" xmlns="http://www.w3.org/2000/svg">
<path d="M215.5 11C215.5 11 215.368 17.9675 219.222 29.7615C222.176 38.8014 226 41.4284 226 41.4284C226 41.4284 222.176 45.627 219.222 53.614C215.368 64.0342 215.5 106 215.5 106C215.5 106 215.632 64.0342 211.778 53.614C208.824 45.627 205 41.4284 205 41.4284C205 41.4284 208.824 38.8014 211.778 29.7615C215.632 17.9675 215.5 11 215.5 11Z" fill="black"/>
<path d="M205 10.5001C205 10.5001 191.872 10.3682 169.649 14.2222C152.616 17.1762 147.667 21 147.667 21C147.667 21 139.755 17.1763 124.706 14.2222C105.072 10.3682 26 10.5001 26 10.5001C26 10.5001 105.072 10.6318 124.706 6.77779C139.755 3.82375 147.667 -2.50613e-06 147.667 -2.50613e-06C147.667 -2.50613e-06 152.616 3.82378 169.649 6.77781C191.872 10.6318 205 10.5001 205 10.5001Z" fill="black"/>
<path d="M226 10.5001C226 10.5001 239.128 10.3682 261.351 14.2222C278.384 17.1762 283.333 21 283.333 21C283.333 21 291.245 17.1763 306.294 14.2222C325.928 10.3682 405 10.5001 405 10.5001C405 10.5001 325.928 10.6318 306.294 6.77779C291.245 3.82375 283.333 -2.50613e-06 283.333 -2.50613e-06C283.333 -2.50613e-06 278.384 3.82378 261.351 6.77781C239.128 10.6318 226 10.5001 226 10.5001Z" fill="black"/>
<circle cx="16.5" cy="10.5" r="2.5" transform="rotate(90 16.5 10.5)" fill="black"/>
<ellipse cx="3.5" cy="10.5" rx="3.5" ry="3.5" transform="rotate(90 3.5 10.5)" fill="black"/>
<circle cx="2.5" cy="2.5" r="2.5" transform="matrix(-4.37114e-08 1 1 4.37114e-08 412 8)" fill="black"/>
<ellipse cx="3.5" cy="3.5" rx="3.5" ry="3.5" transform="matrix(-4.37114e-08 1 1 4.37114e-08 424 7)" fill="black"/>
</svg>
