<svg width="329" height="80" viewBox="0 0 329 80" fill="none" xmlns="http://www.w3.org/2000/svg">
<path d="M165 14C165 14 165.629 22.4118 168.079 26.2793C170.529 30.1467 173 31.1396 173 31.1396C173 31.1396 170.529 32.1325 168.079 36C165.629 39.8675 165 80 165 80C165 80 164.371 39.8675 161.921 36C159.471 32.1325 157 31.1396 157 31.1396C157 31.1396 159.471 30.1467 161.921 26.2793C164.371 22.4118 165 14 165 14Z" fill="black"/>
<path d="M175.828 15.8284C175.828 15.8284 178.845 18.3998 180.995 18.8181C183.146 19.2364 184.349 18.6925 184.349 18.6925C184.349 18.6925 183.806 19.8959 184.224 22.0466C184.642 24.1973 197.749 37.7487 197.749 37.7487C197.749 37.7487 184.197 24.6421 182.047 24.2238C179.896 23.8055 178.693 24.3494 178.693 24.3494C178.693 24.3494 179.236 23.146 178.818 20.9953C178.4 18.8446 175.828 15.8284 175.828 15.8284Z" fill="black"/>
<path d="M174 5C174 5 178.461 4.6855 180.512 3.46048C182.563 2.23547 183.089 1 183.089 1C183.089 1 183.616 2.23547 185.667 3.46048C187.718 4.6855 209 5 209 5C209 5 187.718 5.3145 185.667 6.53952C183.616 7.76454 183.089 9 183.089 9C183.089 9 182.563 7.76454 180.512 6.53952C178.461 5.3145 174 5 174 5Z" fill="black"/>
<path d="M223 5C223 5 234.471 4.60688 239.744 3.07561C245.018 1.54433 246.372 3.03148e-06 246.372 3.03148e-06C246.372 3.03148e-06 247.726 1.54433 253 3.07561C258.274 4.60688 313 5 313 5C313 5 258.274 5.39312 253 6.9244C247.726 8.45567 246.372 10 246.372 10C246.372 10 245.018 8.45567 239.744 6.9244C234.471 5.39312 223 5 223 5Z" fill="black"/>
<circle cx="165" cy="5" r="4" fill="black"/>
<circle cx="216" cy="5" r="2" fill="black"/>
<circle cx="319" cy="5" r="1" fill="black"/>
<circle cx="200" cy="40" r="1" fill="black"/>
<circle cx="327" cy="5" r="2" fill="black"/>
<path d="M198 16C198 16 206.781 15.6069 211 14.0756C215.219 12.5443 216 11 216 11C216 11 217.083 12.5443 221.302 14.0756C225.521 15.6069 270 16 270 16C270 16 225.521 16.3931 221.302 17.9244C217.083 19.4557 216 21 216 21C216 21 215.219 19.5313 211 18C206.781 16.4687 198 16 198 16Z" fill="black"/>
<circle cx="191" cy="16" r="2" fill="black"/>
<circle cx="276" cy="16" r="1" fill="black"/>
<circle cx="284" cy="16" r="2" fill="black"/>
<path d="M153.172 15.8284C153.172 15.8284 150.155 18.3998 148.005 18.8181C145.854 19.2364 144.651 18.6925 144.651 18.6925C144.651 18.6925 145.194 19.8959 144.776 22.0466C144.358 24.1973 131.251 37.7487 131.251 37.7487C131.251 37.7487 144.803 24.6421 146.953 24.2238C149.104 23.8055 150.307 24.3494 150.307 24.3494C150.307 24.3494 149.764 23.146 150.182 20.9953C150.6 18.8446 153.172 15.8284 153.172 15.8284Z" fill="black"/>
<path d="M155 5C155 5 150.539 4.6855 148.488 3.46048C146.437 2.23547 145.911 1 145.911 1C145.911 1 145.384 2.23547 143.333 3.46048C141.282 4.6855 120 5 120 5C120 5 141.282 5.3145 143.333 6.53952C145.384 7.76454 145.911 9 145.911 9C145.911 9 146.437 7.76454 148.488 6.53952C150.539 5.3145 155 5 155 5Z" fill="black"/>
<path d="M106 5C106 5 94.5294 4.60688 89.2555 3.07561C83.9817 1.54433 82.6278 3.03148e-06 82.6278 3.03148e-06C82.6278 3.03148e-06 81.2738 1.54433 76 3.07561C70.7262 4.60688 16 5 16 5C16 5 70.7262 5.39312 76 6.9244C81.2738 8.45567 82.6278 10 82.6278 10C82.6278 10 83.9817 8.45567 89.2555 6.9244C94.5294 5.39312 106 5 106 5Z" fill="black"/>
<circle cx="2" cy="2" r="2" transform="matrix(-1 0 0 1 115 3)" fill="black"/>
<circle cx="1" cy="1" r="1" transform="matrix(-1 0 0 1 11 4)" fill="black"/>
<circle cx="1" cy="1" r="1" transform="matrix(-1 0 0 1 130 39)" fill="black"/>
<circle cx="2" cy="2" r="2" transform="matrix(-1 0 0 1 4 3)" fill="black"/>
<path d="M131 16C131 16 122.219 15.6069 118 14.0756C113.781 12.5443 113 11 113 11C113 11 111.917 12.5443 107.698 14.0756C103.479 15.6069 59 16 59 16C59 16 103.479 16.3931 107.698 17.9244C111.917 19.4557 113 21 113 21C113 21 113.781 19.5313 118 18C122.219 16.4687 131 16 131 16Z" fill="black"/>
<circle cx="2" cy="2" r="2" transform="matrix(-1 0 0 1 140 14)" fill="black"/>
<circle cx="1" cy="1" r="1" transform="matrix(-1 0 0 1 54 15)" fill="black"/>
<circle cx="2" cy="2" r="2" transform="matrix(-1 0 0 1 47 14)" fill="black"/>
</svg>
