<svg width="328" height="67" viewBox="0 0 328 67" fill="none" xmlns="http://www.w3.org/2000/svg">
<ellipse cx="60" cy="7.00001" rx="3" ry="3" transform="rotate(90 60 7.00001)" fill="black"/>
<ellipse cx="128" cy="7.00001" rx="2" ry="2" transform="rotate(90 128 7.00001)" fill="black"/>
<ellipse cx="95" cy="20" rx="2" ry="2" transform="rotate(90 95 20)" fill="black"/>
<ellipse cx="1" cy="1" rx="1" ry="1" transform="matrix(-4.37114e-08 -1 -1 4.37114e-08 317 8.00001)" fill="black"/>
<ellipse cx="2" cy="2" rx="2" ry="2" transform="matrix(-4.37114e-08 -1 -1 4.37114e-08 328 9.00001)" fill="black"/>
<ellipse cx="1" cy="1" rx="1" ry="1" transform="matrix(-4.37114e-08 -1 -1 4.37114e-08 233 21)" fill="black"/>
<ellipse cx="2" cy="2" rx="2" ry="2" transform="matrix(-4.37114e-08 -1 -1 4.37114e-08 244 22)" fill="black"/>
<path d="M60 15C60 15 60.5793 20.4777 62.836 22.7636C65.0926 25.0495 67 25.6364 67 25.6364C67 25.6364 65.0926 26.9642 62.836 32.1364C60.5793 37.3085 60 67 60 67C60 67 59.4207 37.3085 57.164 32.1364C54.9074 26.9642 53 25.6364 53 25.6364C53 25.6364 54.9074 25.0495 57.164 22.7636C59.4207 20.4777 60 15 60 15Z" fill="black"/>
<path d="M52 7.00001C52 7.00001 46.5223 7.57935 44.2364 9.83596C41.9505 12.0926 41.3636 14 41.3636 14C41.3636 14 40.0358 12.0926 34.8636 9.83596C29.6915 7.57935 2.07821e-06 7.00001 2.07821e-06 7.00001C2.07821e-06 7.00001 29.6915 6.42067 34.8636 4.16406C40.0358 1.90744 41.3636 9.07181e-06 41.3636 9.07181e-06C41.3636 9.07181e-06 41.9505 1.90744 44.2364 4.16406C46.5223 6.42067 52 7.00001 52 7.00001Z" fill="black"/>
<path d="M68 7.00001C68 7.00001 73.4777 7.57935 75.7636 9.83596C78.0495 12.0926 78.6364 14 78.6364 14C78.6364 14 79.9642 12.0926 85.1364 9.83596C90.3085 7.57935 120 7.00001 120 7.00001C120 7.00001 90.3085 6.42067 85.1364 4.16406C79.9642 1.90744 78.6364 9.07181e-06 78.6364 9.07181e-06C78.6364 9.07181e-06 78.0495 1.90744 75.7636 4.16406C73.4777 6.42067 68 7.00001 68 7.00001Z" fill="black"/>
<path d="M70.8284 18.8284C70.8284 18.8284 73.1481 20.68 74.9303 20.6385C76.7125 20.5971 77.7066 20.0498 77.7066 20.0498C77.7066 20.0498 77.4415 21.3261 78.499 24.2072C79.5565 27.0883 90.6274 38.6274 90.6274 38.6274C90.6274 38.6274 79.0883 27.5565 76.2072 26.499C73.3261 25.4415 72.0498 25.7067 72.0498 25.7067C72.0498 25.7067 72.5971 24.7125 72.6385 22.9303C72.68 21.1481 70.8284 18.8284 70.8284 18.8284Z" fill="black"/>
<path d="M49.6274 18.8284C49.6274 18.8284 47.3077 20.68 45.5256 20.6385C43.7434 20.5971 42.7492 20.0498 42.7492 20.0498C42.7492 20.0498 43.0144 21.3261 41.9569 24.2072C40.8994 27.0883 29.8285 38.6274 29.8285 38.6274C29.8285 38.6274 41.3676 27.5565 44.2487 26.499C47.1298 25.4415 48.4061 25.7067 48.4061 25.7067C48.4061 25.7067 47.8588 24.7125 47.8174 22.9303C47.7759 21.1481 49.6274 18.8284 49.6274 18.8284Z" fill="black"/>
<path d="M136 7.00001C136 7.00001 154.118 7.57935 161.68 9.83596C169.241 12.0926 172 14 172 14C172 14 175.574 12.0926 192.682 9.83596C209.79 7.57935 308 7 308 7C308 7 209.79 6.42067 192.682 4.16405C175.574 1.90744 172 7.62939e-06 172 7.62939e-06C172 7.62939e-06 169.241 1.90744 161.68 4.16406C154.118 6.42067 136 7.00001 136 7.00001Z" fill="black"/>
<path d="M102 20C102 20 115.062 20.4138 120.513 22.0257C125.964 23.6376 128 25 128 25C128 25 130.53 23.6376 142.864 22.0257C155.197 20.4138 226 20 226 20C226 20 155.197 19.5862 142.864 17.9743C130.53 16.3625 128 15 128 15C128 15 125.964 16.3625 120.513 17.9743C115.062 19.5862 102 20 102 20Z" fill="black"/>
</svg>
