<svg width="151" height="10" viewBox="0 0 151 10" fill="none" xmlns="http://www.w3.org/2000/svg">
<ellipse cx="2" cy="5" rx="2" ry="2" transform="rotate(90 2 5)" fill="black"/>
<ellipse cx="1" cy="1" rx="1" ry="1" transform="matrix(-4.37114e-08 -1 -1 4.37114e-08 140 6)" fill="black"/>
<ellipse cx="2" cy="2" rx="2" ry="2" transform="matrix(-4.37114e-08 -1 -1 4.37114e-08 151 7)" fill="black"/>
<path d="M9 5.00001C9 5.00001 22.0621 5.41382 27.5132 7.02569C32.9642 8.63756 35 10 35 10C35 10 37.53 8.63756 49.8636 7.02569C62.1972 5.41382 133 5.00001 133 5.00001C133 5.00001 62.1972 4.58619 49.8636 2.97433C37.53 1.36246 35 3.8147e-06 35 3.8147e-06C35 3.8147e-06 32.9642 1.36246 27.5132 2.97433C22.0621 4.5862 9 5.00001 9 5.00001Z" fill="black"/>
</svg>
