<?xml version="1.0" standalone="no"?>
<!DOCTYPE svg PUBLIC "-//W3C//DTD SVG 20010904//EN"
 "http://www.w3.org/TR/2001/REC-SVG-20010904/DTD/svg10.dtd">
<svg version="1.0" xmlns="http://www.w3.org/2000/svg"
 width="600.000000pt" height="600.000000pt" viewBox="0 0 600.000000 600.000000"
 preserveAspectRatio="xMidYMid meet">
<g transform="translate(0.000000,600.000000) scale(0.050000,-0.050000)"
fill="#000000" stroke="none">
<path d="M5981 11870 c-21 -2067 -667 -3735 -1794 -4634 l-107 -86 1222 -1222
1223 -1223 -79 -118 c-122 -180 -253 -435 -347 -672 -96 -245 -97 -245 -170
-50 -126 335 -425 849 -605 1041 l-52 55 -315 -314 -315 -314 126 -152 c739
-890 1168 -2203 1209 -3704 7 -250 20 -460 28 -469 8 -8 15 46 15 119 0 1161
269 2429 691 3253 292 570 881 1277 1245 1492 4 2 -541 555 -1210 1228 -669
673 -1219 1231 -1222 1241 -4 10 19 56 51 103 100 147 237 417 326 641 97 247
96 247 179 30 126 -332 555 -1054 626 -1055 9 0 157 139 327 309 l311 309
-133 166 c-741 926 -1186 2324 -1192 3746 -1 187 -10 358 -19 380 -12 28 -18
-3 -19 -100z"/>
<path d="M2263 9746 c16 -25 79 -97 138 -161 635 -681 1082 -1343 1086 -1608
2 -115 -41 -210 -144 -322 -136 -148 390 42 631 228 234 181 479 581 519 847
l12 80 -75 -86 c-342 -392 -921 -129 -2058 936 -76 72 -125 110 -109 86z"/>
<path d="M9720 9717 c-27 -22 -95 -83 -150 -134 -654 -610 -1329 -1062 -1594
-1069 -115 -2 -208 39 -321 143 -71 65 -72 38 -4 -177 148 -466 459 -771 958
-938 211 -70 227 -66 114 30 -391 335 -112 947 935 2053 132 139 149 164 62
92z"/>
<path d="M7353 7043 l-316 -317 96 -80 c275 -227 677 -450 1072 -595 112 -40
109 -53 -19 -101 -166 -61 -647 -296 -642 -313 4 -8 140 -151 304 -316 l298
-300 164 99 c872 527 1974 822 3203 857 433 12 677 43 345 43 -1688 2 -3159
466 -4159 1313 -26 22 -74 -18 -346 -290z"/>
<path d="M3821 6971 c-28 -33 -257 -169 -485 -287 -749 -389 -1787 -631 -2816
-658 -436 -11 -697 -42 -380 -45 1640 -15 3116 -455 4020 -1198 83 -68 156
-123 162 -123 7 0 150 141 319 313 l306 314 -68 58 c-252 215 -695 461 -1086
604 -116 43 -112 48 117 140 240 97 540 255 540 285 0 19 -583 626 -601 626
-2 0 -15 -13 -28 -29z"/>
<path d="M3277 4428 c393 -336 129 -914 -937 -2056 -134 -144 -86 -120 90 45
648 605 1335 1066 1596 1070 115 2 210 -43 328 -153 62 -58 63 -58 53 -12
-127 567 -437 926 -967 1119 -227 83 -271 80 -163 -13z"/>
<path d="M8485 4351 c-464 -150 -759 -444 -933 -927 -79 -222 -70 -240 55
-115 337 338 966 36 2031 -977 147 -140 88 -53 -108 158 -623 671 -1071 1378
-1018 1606 17 69 80 179 145 249 65 71 32 72 -172 6z"/>
</g>
</svg>
